{
	"asset":{
		"generator":"Khronos glTF Blender I/O v4.2.70",
		"version":"2.0"
	},
	"scene":0,
	"scenes":[
		{
			"name":"Scene",
			"nodes":[
				0
			]
		}
	],
	"nodes":[
		{
			"mesh":0,
			"name":"Icosphere"
		}
	],
	"materials":[
		{
			"doubleSided":true,
			"emissiveFactor":[
				1,
				1,
				1
			],
			"emissiveTexture":{
				"index":0
			},
			"name":"Material.001",
			"pbrMetallicRoughness":{
				"baseColorFactor":[
					0,
					0,
					0,
					1
				],
				"metallicFactor":0,
				"roughnessFactor":0.10000000149011612
			}
		}
	],
	"meshes":[
		{
			"name":"Icosphere",
			"primitives":[
				{
					"attributes":{
						"POSITION":0,
						"NORMAL":1,
						"TEXCOORD_0":2
					},
					"indices":3,
					"material":0
				}
			]
		}
	],
	"textures":[
		{
			"sampler":0,
			"source":0
		}
	],
	"images":[
		{
			"mimeType":"image/png",
			"name":"cube",
			"uri":"voxel_sphere/cube.png"
		}
	],
	"accessors":[
		{
			"bufferView":0,
			"componentType":5126,
			"count":3864,
			"max":[
				7.500015735626221,
				7.500015735626221,
				7.500015735626221
			],
			"min":[
				-7.500015735626221,
				-7.500015735626221,
				-7.500015735626221
			],
			"type":"VEC3"
		},
		{
			"bufferView":1,
			"componentType":5126,
			"count":3864,
			"type":"VEC3"
		},
		{
			"bufferView":2,
			"componentType":5126,
			"count":3864,
			"type":"VEC2"
		},
		{
			"bufferView":3,
			"componentType":5123,
			"count":5796,
			"type":"SCALAR"
		}
	],
	"bufferViews":[
		{
			"buffer":0,
			"byteLength":46368,
			"byteOffset":0,
			"target":34962
		},
		{
			"buffer":0,
			"byteLength":46368,
			"byteOffset":46368,
			"target":34962
		},
		{
			"buffer":0,
			"byteLength":30912,
			"byteOffset":92736,
			"target":34962
		},
		{
			"buffer":0,
			"byteLength":11592,
			"byteOffset":123648,
			"target":34963
		}
	],
	"samplers":[
		{
			"magFilter":9729,
			"minFilter":9987
		}
	],
	"buffers":[
		{
			"byteLength":135240,
			"uri":"voxel_sphere.bin"
		}
	]
}
