<svg width="92" height="128" viewBox="0 0 92 128" fill="none" xmlns="http://www.w3.org/2000/svg">
<rect width="92" height="128" fill="#1E1E1E"/>
<path d="M83 1H9C4.58172 1 1 4.58172 1 9V119C1 123.418 4.58172 127 9 127H83C87.4183 127 91 123.418 91 119V9C91 4.58172 87.4183 1 83 1Z" fill="#7A4E1F" stroke="#996833"/>
<path d="M75 9H59C54.5817 9 51 12.5817 51 17V51C51 55.4183 54.5817 59 59 59H75C79.4183 59 83 55.4183 83 51V17C83 12.5817 79.4183 9 75 9Z" fill="#996833"/>
<path d="M33 9H17C12.5817 9 9 12.5817 9 17V51C9 55.4183 12.5817 59 17 59H33C37.4183 59 41 55.4183 41 51V17C41 12.5817 37.4183 9 33 9Z" fill="#996833"/>
<path d="M75 69H59C54.5817 69 51 72.5817 51 77V111C51 115.418 54.5817 119 59 119H75C79.4183 119 83 115.418 83 111V77C83 72.5817 79.4183 69 75 69Z" fill="#996833"/>
<path d="M33 69H17C12.5817 69 9 72.5817 9 77V111C9 115.418 12.5817 119 17 119H33C37.4183 119 41 115.418 41 111V77C41 72.5817 37.4183 69 33 69Z" fill="#996833"/>
</svg>
